<svg xmlns="http://www.w3.org/2000/svg" xmlns:xlink="http://www.w3.org/1999/xlink" version="1.1" x="0px" y="0px" viewBox="0 0 1024 1024" style="enable-background:new 0 0 1024 1024;" xml:space="preserve"><g><g><g><path fill="#747474" d="M930,365.4c0,14.7,0,29.3,0,44c0,35.1,0,70.1,0,105.2c0,41.9,0,83.8,0,125.7c0,35.7,0,71.5,0,107.2     c0,16,0.1,32,0,48c0,4.2-0.3,8.4-0.8,12.6c0.4-2.7,0.7-5.3,1.1-8c-1.2,8.5-3.4,16.7-6.6,24.6c1-2.4,2-4.8,3-7.2     c-2.4,5.6-5.3,11.1-8.7,16.2c-0.7,1.1-1.5,2.1-2.2,3.2c-2.8,4.1,5.4-6.5,0.7-0.9c-1.8,2.2-3.7,4.2-5.7,6.2c-2,2-4.1,3.9-6.2,5.7     c-5.6,4.7,5-3.5,0.9-0.7c-1.1,0.7-2.1,1.5-3.2,2.2c-5.1,3.4-10.5,6.3-16.2,8.7c2.4-1,4.8-2,7.2-3c-7.9,3.2-16.1,5.4-24.6,6.6     c2.7-0.4,5.3-0.7,8-1.1c-9.5,1.2-19.2,0.8-28.8,0.8c-16.8,0-33.6,0-50.3,0c-25.4,0-50.8,0-76.2,0c-31.2,0-62.5,0-93.7,0     c-34.2,0-68.3,0-102.5,0c-34.7,0-69.3,0-104,0c-32.3,0-64.5,0-96.8,0c-27.1,0-54.1,0-81.2,0c-19.1,0-38.3,0-57.4,0     c-8.4,0-16.8,0-25.3,0c-4.3,0-8.6-0.3-13-0.8c2.7,0.4,5.3,0.7,8,1.1c-8.5-1.2-16.7-3.4-24.6-6.6c2.4,1,4.8,2,7.2,3     c-5.6-2.4-11.1-5.3-16.2-8.7c-1.1-0.7-2.1-1.5-3.2-2.2c-4.1-2.8,6.5,5.4,0.9,0.7c-2.2-1.8-4.2-3.7-6.2-5.7c-2-2-3.9-4.1-5.7-6.2     c-4.7-5.6,3.5,5,0.7,0.9c-0.7-1.1-1.5-2.1-2.2-3.2c-3.4-5.1-6.3-10.5-8.7-16.2c1,2.4,2,4.8,3,7.2c-3.2-7.9-5.4-16.1-6.6-24.6     c0.4,2.7,0.7,5.3,1.1,8C92.7,791,94,773.2,94,756c0-34.6,0-69.2,0-103.8c0-42.7,0-85.4,0-128.1c0-36.4,0-72.8,0-109.3     c0-16.5-0.1-32.9,0-49.4c0-4.2,0.3-8.4,0.8-12.6c-0.4,2.7-0.7,5.3-1.1,8c1.2-8.5,3.4-16.7,6.6-24.6c-1,2.4-2,4.8-3,7.2     c2.4-5.6,5.3-11.1,8.7-16.2c0.7-1.1,1.5-2.1,2.2-3.2c2.8-4.1-5.4,6.5-0.7,0.9c1.8-2.2,3.7-4.2,5.7-6.2c2-2,4.1-3.9,6.2-5.7     c5.6-4.7-5,3.5-0.9,0.7c1.1-0.7,2.1-1.5,3.2-2.2c5.1-3.4,10.5-6.3,16.2-8.7c-2.4,1-4.8,2-7.2,3c7.9-3.2,16.1-5.4,24.6-6.6     c-2.7,0.4-5.3,0.7-8,1.1c15.9-1.9,32.5-0.8,48.4-0.8c23,0,46.1,0,69.1,0c5.4,0,10.8,0,16.2,0c13.5,0,25-9.4,28.9-22     c9.5-30.6,19-61.2,28.5-91.7c1.6-5.1,3-10.4,5-15.4c-1,2.4-2,4.8-3,7.2c1.1-2.6,2.4-5.1,3.9-7.5c0.5-0.8,1-1.5,1.6-2.3     c-1,1.3-2,2.6-3,3.9c0.2-1.1,2.5-2.8,3.2-3.6c1-1,2-1.9,3-2.8c2.3-2.1-6.8,4.8-1.7,1.4c2.5-1.7,5.1-3,7.8-4.3c-2.4,1-4.8,2-7.2,3     c3.9-1.6,7.8-2.7,12-3.4c-2.7,0.4-5.3,0.7-8,1.1c11.7-1.6,24.1-0.5,35.9-0.5c24.5,0,49,0,73.4,0c55.8,0,111.7,0,167.5,0     c14.1,0,28.9-1.3,42.9,0.5c-2.7-0.4-5.3-0.7-8-1.1c4.1,0.7,8.1,1.8,12,3.4c-2.4-1-4.8-2-7.2-3c2.5,1.1,4.9,2.4,7.2,3.9     c5.1,3.3-0.6-1.5-1.7-1.4c0.8,0,2.9,2.6,3.5,3.2c1,1,1.9,2,2.8,3.1c2.1,2.3-4.8-6.8-1.4-1.6c1.7,2.6,3,5.2,4.2,8     c-1-2.4-2-4.8-3-7.2c4.8,12.1,7.9,24.9,11.8,37.3c5.8,18.8,11.7,37.7,17.5,56.5c1.4,4.4,2.8,8.9,4.1,13.3     c3.9,12.7,15.4,22,28.9,22c37,0,74,0,110.9,0c7.6,0,15.2-0.1,22.9,0.8c-2.7-0.4-5.3-0.7-8-1.1c8.5,1.2,16.7,3.4,24.6,6.6     c-2.4-1-4.8-2-7.2-3c5.6,2.4,11.1,5.3,16.2,8.7c1.1,0.7,2.1,1.5,3.2,2.2c4.1,2.8-6.5-5.4-0.9-0.7c2.2,1.8,4.2,3.7,6.2,5.7     c2,2,3.9,4.1,5.7,6.2c4.7,5.6-3.5-5-0.7-0.9c0.7,1.1,1.5,2.1,2.2,3.2c3.4,5.1,6.3,10.5,8.7,16.2c-1-2.4-2-4.8-3-7.2     c3.2,7.9,5.4,16.1,6.6,24.6c-0.4-2.7-0.7-5.3-1.1-8C929.7,357,930,361.2,930,365.4c0.1,15.7,13.7,30.7,30,30     c16.2-0.7,30.1-13.2,30-30c-0.2-33-13.2-65-36.4-88.5c-23.1-23.4-55.2-36.8-88-37.3c-28.8-0.4-57.6,0-86.3,0     c-12.1,0-24.3,0-36.4,0c9.6,7.3,19.3,14.7,28.9,22c-5.8-18.8-11.7-37.6-17.5-56.3c-3.7-11.9-7.4-23.8-11.1-35.7     c-3.2-10.2-6-20.7-11.8-29.8c-14.5-23-39.5-36.9-66.6-37.2c-3,0-5.9,0-8.9,0c-17.7,0-35.4,0-53.1,0c-54.5,0-108.9,0-163.4,0     c-20.7,0-41.3,0-62,0c-5.2,0-10.3,0-15.5,0c-13.9,0-26.9,3-39.3,9.2c-19.3,9.7-32.4,28.1-38.7,48.3c-2.7,8.7-5.4,17.3-8.1,26     c-7.3,23.6-14.7,47.2-22,70.8c-0.5,1.6-1,3.2-1.5,4.7c9.6-7.3,19.3-14.7,28.9-22c-35,0-70.1,0-105.1,0c-20.8,0-41.6,0.4-61.2,8.5     c-18.2,7.4-34.9,17.8-48,32.7c-13.1,14.8-23,32-28.3,51.1C32.1,355.1,34,380.9,34,405c0,38.4,0,76.9,0,115.3c0,46.3,0,92.7,0,139     c0,36,0,71.9,0,107.9c0,8.6,0,17.1,0,25.7c0,23.2,5.3,46,17.1,66.2c10,17.1,24,31.3,40.5,42.3c16.8,11.2,36,17,55.9,19.4     c6.5,0.8,12.8,0.8,19.3,0.8c20.3,0,40.5,0,60.8,0c35.7,0,71.4,0,107.2,0c44.5,0,89,0,133.5,0c46.6,0,93.2,0,139.7,0     c42,0,84,0,125.9,0c30.7,0,61.4,0,92.1,0c12.7,0,25.4,0.1,38.2,0c34.1-0.2,68-14.2,91.4-39.2c22.2-23.7,34.5-54.8,34.6-87.2     c0.1-20.6,0-41.2,0-61.8c0-41.9,0-83.9,0-125.8c0-45.4,0-90.7,0-136.1c0-30.9,0-61.8,0-92.7c0-4.4,0-8.9,0-13.3     c0-15.7-13.8-30.7-30-30C943.7,336.1,930,348.5,930,365.4z"/></g></g><g><g><path fill="#747474" d="M686.7,580.5c0,9.3-0.6,18.6-1.9,27.8c0.4-2.7,0.7-5.3,1.1-8c-2.5,17.9-7.2,35.3-14.2,51.9     c1-2.4,2-4.8,3-7.2c-5.2,12.2-11.5,23.8-18.9,34.8c-1.7,2.5-3.5,5-5.3,7.5c-4.4,5.9,3.8-4.7,0.7-0.9c-0.8,1-1.6,2-2.5,3.1     c-4.2,5.1-8.6,9.9-13.2,14.5c-4.6,4.6-9.5,9-14.5,13.2c-1,0.8-2,1.6-3.1,2.5c-3.9,3.1,6.8-5.1,0.9-0.7c-2.5,1.8-5,3.6-7.5,5.3     c-11,7.4-22.6,13.7-34.8,18.9c2.4-1,4.8-2,7.2-3c-16.6,7-34,11.7-51.9,14.2c2.7-0.4,5.3-0.7,8-1.1c-18.5,2.4-37.1,2.4-55.6,0     c2.7,0.4,5.3,0.7,8,1.1c-17.9-2.5-35.3-7.2-51.9-14.2c2.4,1,4.8,2,7.2,3c-12.2-5.2-23.8-11.5-34.8-18.9c-2.5-1.7-5-3.5-7.5-5.3     c-5.9-4.4,4.7,3.8,0.9,0.7c-1-0.8-2-1.6-3.1-2.5c-5.1-4.2-9.9-8.6-14.5-13.2c-4.6-4.6-9-9.5-13.2-14.5c-0.8-1-1.6-2-2.5-3.1     c-3.1-3.9,5.1,6.8,0.7,0.9c-1.8-2.5-3.6-5-5.3-7.5c-7.4-11-13.7-22.6-18.9-34.8c1,2.4,2,4.8,3,7.2c-7-16.6-11.7-34-14.2-51.9     c0.4,2.7,0.7,5.3,1.1,8c-2.4-18.5-2.4-37.1,0-55.6c-0.4,2.7-0.7,5.3-1.1,8c2.5-17.9,7.2-35.3,14.2-51.9c-1,2.4-2,4.8-3,7.2     c5.2-12.2,11.5-23.8,18.9-34.8c1.7-2.5,3.5-5,5.3-7.5c4.4-5.9-3.8,4.7-0.7,0.9c0.8-1,1.6-2,2.5-3.1c4.2-5.1,8.6-9.9,13.2-14.5     c4.6-4.6,9.5-9,14.5-13.2c1-0.8,2-1.6,3.1-2.5c3.9-3.1-6.8,5.1-0.9,0.7c2.5-1.8,5-3.6,7.5-5.3c11-7.4,22.6-13.7,34.8-18.9     c-2.4,1-4.8,2-7.2,3c16.6-7,34-11.7,51.9-14.2c-2.7,0.4-5.3,0.7-8,1.1c18.5-2.4,37.1-2.4,55.6,0c-2.7-0.4-5.3-0.7-8-1.1     c17.9,2.5,35.3,7.2,51.9,14.2c-2.4-1-4.8-2-7.2-3c12.2,5.2,23.8,11.5,34.8,18.9c2.5,1.7,5,3.5,7.5,5.3c5.9,4.4-4.7-3.8-0.9-0.7     c1,0.8,2,1.6,3.1,2.5c5.1,4.2,9.9,8.6,14.5,13.2c4.6,4.6,9,9.5,13.2,14.5c0.8,1,1.6,2,2.5,3.1c3.1,3.9-5.1-6.8-0.7-0.9     c1.8,2.5,3.6,5,5.3,7.5c7.4,11,13.7,22.6,18.9,34.8c-1-2.4-2-4.8-3-7.2c7,16.6,11.7,34,14.2,51.9c-0.4-2.7-0.7-5.3-1.1-8     C686.1,561.9,686.7,571.2,686.7,580.5c0.1,15.7,13.8,30.7,30,30c16.2-0.7,30.1-13.2,30-30c-0.2-47.4-14.5-95.3-42.1-133.9     c-28.6-40.1-67.5-70-113.7-87.1c-89.9-33.2-197.2-4.3-258.2,69.6c-31.9,38.6-50.8,84.7-54.9,134.7c-3.9,47.5,8.1,96.8,32.7,137.5     c23.8,39.4,59.6,72.6,101.6,91.7c46.6,21.2,97.3,27.3,147.6,17.4c92.3-18.2,168.8-96.8,183.3-189.9c2.1-13.2,3.5-26.5,3.5-39.8     c0.1-15.7-13.8-30.7-30-30C700.4,551.2,686.8,563.7,686.7,580.5z"/></g></g><g><g><path fill="#747474" d="M424.7,272c19.6,0,39.2,0,58.8,0c31.4,0,62.9,0,94.3,0c7.2,0,14.4,0,21.5,0c15.7,0,30.7-13.8,30-30     c-0.7-16.3-13.2-30-30-30c-19.6,0-39.2,0-58.8,0c-31.4,0-62.9,0-94.3,0c-7.2,0-14.4,0-21.5,0c-15.7,0-30.7,13.8-30,30     C395.4,258.3,407.9,272,424.7,272L424.7,272z"/></g></g></g></svg>