<svg xmlns="http://www.w3.org/2000/svg" xmlns:xlink="http://www.w3.org/1999/xlink" xml:space="preserve" version="1.1" style="shape-rendering:geometricPrecision;text-rendering:geometricPrecision;image-rendering:optimizeQuality;" viewBox="0 0 847 1058.75" x="0px" y="0px" fill-rule="evenodd" clip-rule="evenodd"><defs><style type="text/css">
   
    .fil0 {fill:#ff1e00}
   
  </style></defs><g><polygon class="fil0" points="-1349,871 -1340,862 -1316,885 -1293,862 -1284,871 -1307,895 -1284,918 -1293,927 -1316,904 -1340,927 -1349,918 -1325,895 "/><path class="fil0" d="M-1206 884l36 -36 18 19 -36 35 36 36 -18 19 -36 -36 -36 36 -18 -19 35 -36 -35 -35 18 -19 36 36zm-50 -17l14 -14 36 36 36 -36 13 14 -35 35 35 36 -13 14 -36 -36 -36 36 -14 -14 36 -36 -36 -35z"/><polygon class="fil0" points="-1152,926 -1128,902 -1116,914 -1140,938 -1116,962 -1128,975 -1152,951 -1176,975 -1189,962 -1164,938 -1189,914 -1176,902 "/><path class="fil0" d="M423 268l235 -235c15,-15 39,-15 55,0l100 101c15,15 15,40 0,55l-234 234 234 235c15,15 15,39 0,55l-100 100c-16,15 -40,15 -55,0l-235 -234 -234 234c-15,15 -40,15 -55,0l-101 -100c-15,-16 -15,-40 0,-55l235 -235 -235 -234c-15,-15 -15,-40 0,-55l101 -101c15,-15 40,-15 55,0l234 235z"/></g></svg>