<svg xmlns="http://www.w3.org/2000/svg" xmlns:xlink="http://www.w3.org/1999/xlink" version="1.1" x="0px" y="0px" viewBox="0 0 24 24" style="enable-background:new 0 0 24 24;" xml:space="preserve"><g><path d="M17.264,1.967H6.736c-1.642,0-2.974,1.331-2.974,2.974V19.06c0,1.642,1.331,2.974,2.974,2.974h10.528   c1.642,0,2.974-1.331,2.974-2.974V4.94C20.237,3.298,18.906,1.967,17.264,1.967z M18.723,19.06c0,0.806-0.653,1.459-1.459,1.459   H6.736c-0.806,0-1.459-0.653-1.459-1.459V4.94c0-0.806,0.653-1.459,1.459-1.459h10.528c0.806,0,1.459,0.653,1.459,1.459V19.06z"/><path d="M15.735,6.863H8.265c-0.418,0-0.757,0.339-0.757,0.757s0.339,0.757,0.757,0.757h7.471c0.418,0,0.757-0.339,0.757-0.757   S16.153,6.863,15.735,6.863z"/><path d="M15.735,9.892H8.265c-0.418,0-0.757,0.339-0.757,0.757s0.339,0.757,0.757,0.757h7.471c0.418,0,0.757-0.339,0.757-0.757   S16.153,9.892,15.735,9.892z"/><path d="M15.735,12.921H8.265c-0.418,0-0.757,0.339-0.757,0.757c0,0.418,0.339,0.757,0.757,0.757h7.471   c0.418,0,0.757-0.339,0.757-0.757C16.493,13.26,16.153,12.921,15.735,12.921z"/><path d="M15.735,15.95H8.265c-0.418,0-0.757,0.339-0.757,0.757c0,0.418,0.339,0.757,0.757,0.757h7.471   c0.418,0,0.757-0.339,0.757-0.757C16.493,16.289,16.153,15.95,15.735,15.95z"/></g></svg>