<svg xmlns="http://www.w3.org/2000/svg" xmlns:xlink="http://www.w3.org/1999/xlink" version="1.1" x="0px" y="0px" viewBox="0 0 512 512" style="enable-background:new 0 0 512 512;" xml:space="preserve"><g><polygon fill="#303030" points="132.242,377.724 210.818,345.564 137.235,290.376  "/><path fill="#303030" d="M384.734,133.739c7.094-9.159,10.157-20.527,8.627-32.01c-1.53-11.483-7.464-21.652-16.709-28.633l-18.533-13.996   c-18.71-14.13-45.599-10.533-59.938,8.02l-12.335,15.961l86.981,66.032L384.734,133.739z"/><polygon fill="#303030" points="360.581,164.926 273.616,98.906 142.128,269.046 229.304,334.428  "/><path fill="#303030" d="M461.83,441.532H50.17c-5.523,0-10,4.477-10,10s4.477,10,10,10H461.83c5.523,0,10-4.477,10-10   S467.353,441.532,461.83,441.532z"/></g></svg>