<svg xmlns="http://www.w3.org/2000/svg" xmlns:xlink="http://www.w3.org/1999/xlink" version="1.1" x="0px" y="0px" viewBox="0 0 100 100" style="enable-background:new 0 0 100 100;" xml:space="preserve"><g><path fill="#787878" d="M93.4,41.3c-1.6-2.1-4-3.3-6.6-3.3h-2.9v-6.7c0-4.5-3.6-8.1-8.1-8.1H49.5c-1.1,0-2-0.9-2-2v-0.8c0-4.5-3.6-8.1-8.1-8.1   H13.1c-4.5,0-8.1,3.6-8.1,8.1v59.1c0,2.6,1.3,5,3.2,6.5c1.4,1.1,3.2,1.8,5.1,1.8c0,0,0,0,0,0l63.4-0.1c3.6,0,6.8-2.4,7.9-5.8   l10-33.5C95.4,45.9,94.9,43.3,93.4,41.3z M13.1,18.4h26.3c1.1,0,2,0.9,2,2v0.8c0,4.5,3.6,8.1,8.1,8.1h26.3c1.1,0,2,0.9,2,2V38H24.8   c-3.5,0-6.7,2.2-7.8,5.5l-5.9,17.4V20.4C11.1,19.3,12,18.4,13.1,18.4z M88.8,46.6l-10,33.5c-0.3,0.9-1.1,1.5-2.1,1.5l-63.4,0.1   c0,0,0,0,0,0c-0.7,0-1.4-0.3-1.8-0.9c-0.2-0.3-0.5-0.9-0.3-1.8l11.4-33.5c0.3-0.8,1.1-1.4,2-1.4h62c0.7,0,1.3,0.3,1.7,0.9   C88.8,45.2,89.1,45.8,88.8,46.6z"/></g></svg>