<svg xmlns="http://www.w3.org/2000/svg" xmlns:xlink="http://www.w3.org/1999/xlink" version="1.1" x="0px" y="0px" viewBox="0 0 64 64" enable-background="new 0 0 64 64" xml:space="preserve"><g><g><path d="M62.059,29.124l-5.821-5.42V7.809c0-0.552-0.447-1-1-1h-12c-0.553,0-1,0.448-1,1v2.861l-9.068-8.443    c-0.385-0.357-0.979-0.357-1.363,0l-29,27c-0.301,0.28-0.399,0.716-0.249,1.098s0.52,0.634,0.931,0.634h6v30c0,0.552,0.447,1,1,1    h15.167c0.553,0,1-0.448,1-1V44.757H38.32v16.201c0,0.552,0.447,1,1,1h15.167c0.553,0,1-0.448,1-1v-30h6    c0.007,0.001,0.015,0,0.02,0c0.553,0,1-0.448,1-1C62.507,29.61,62.329,29.303,62.059,29.124z M44.237,8.809h10v13.034l-10-9.311    V8.809z M54.487,28.958c-0.553,0-1,0.448-1,1v30H40.32V43.757c0-0.552-0.447-1-1-1H25.654c-0.553,0-1,0.448-1,1v16.201H11.487v-30    c0-0.552-0.447-1-1-1H6.029L32.487,4.325l10.067,9.374c0.001,0,0.001,0,0.001,0.001l12,11.172l0,0l4.39,4.087H54.487z"/></g></g></svg>