<svg xmlns="http://www.w3.org/2000/svg" xmlns:xlink="http://www.w3.org/1999/xlink" version="1.1" x="0px" y="0px" viewBox="0 0 100 100" enable-background="new 0 0 100 100" xml:space="preserve"><path fill="#FF0000" d="M93.21,74.042l-34.126-59.11c-1.87-3.238-5.354-5.25-9.094-5.25s-7.224,2.012-9.094,5.25L6.467,74.568  c-1.869,3.238-1.869,7.261,0,10.5c1.87,3.238,5.354,5.25,9.094,5.25h68.879c5.79,0,10.5-4.71,10.5-10.5  C94.939,77.752,94.342,75.758,93.21,74.042z M84.439,83.317H15.561c-1.246,0-2.408-0.671-3.031-1.75c-0.623-1.08-0.623-2.421,0-3.5  l34.43-59.634c0.623-1.08,1.785-1.75,3.031-1.75s2.408,0.671,3.031,1.75l34.184,59.208c0.042,0.073,0.087,0.145,0.135,0.215  c0.393,0.578,0.6,1.257,0.6,1.962C87.939,81.747,86.369,83.317,84.439,83.317z M50,63.93c2.16,0,3.912-1.751,3.912-3.912V39.687  c0-2.161-1.752-3.912-3.912-3.912s-3.912,1.751-3.912,3.912v20.331C46.088,62.179,47.84,63.93,50,63.93z M50,66.225  c-1.32,0-2.601,0.53-3.54,1.46c-0.93,0.93-1.46,2.22-1.46,3.54c0,1.31,0.53,2.6,1.46,3.53c0.939,0.93,2.229,1.47,3.54,1.47  c1.31,0,2.6-0.54,3.53-1.47c0.939-0.93,1.47-2.22,1.47-3.53c0-1.32-0.53-2.61-1.47-3.54C52.6,66.754,51.31,66.225,50,66.225z"/></svg>